<svg width="1024" height="1024" viewBox="0 0 1024 1024" fill="none" xmlns="http://www.w3.org/2000/svg">
<path d="M798.275 127C804.852 127 810.57 130.081 815.431 136.242L901.209 251.771C906.07 258.318 908.5 266.02 908.5 274.877V557.923C908.5 567.165 906.07 574.867 901.209 581.028L815.431 696.558C810.57 703.104 804.852 706.377 798.275 706.377H700.918V882.559C700.918 892.186 697.343 897 690.195 897H554.374V502.242H631.929C642.976 502.242 650 498.639 650 491.587V343.5C650 336.448 642.976 333 631.929 333H519.5V333.202H398V880.597C398 890.199 391.571 895 382.5 895H228.852C219.78 895 215.244 890.199 215.244 880.597V333.202H128.607C119.536 333.202 115 326.869 115 314.202V141.403C115 131.801 119.536 127 128.607 127H798.275Z" fill="#3D5F90"/>
</svg>
