<svg width="888" height="670" viewBox="0 0 888 670" fill="none" xmlns="http://www.w3.org/2000/svg">
<path d="M628.584 227.96C727.772 227.96 808.179 308.535 808.179 407.929C808.179 507.323 727.772 587.897 628.584 587.897C605.159 587.897 582.783 583.4 562.264 575.226C600.116 544.359 628.924 511.438 649.244 484.421C661.218 468.501 670.286 454.563 676.569 444.212C680.19 447.882 683.365 451.102 685.826 453.597C687.514 455.308 688.866 456.678 689.797 457.621C690.262 458.092 690.622 458.457 690.865 458.703C690.994 458.834 691.071 458.914 691.14 458.984C691.175 459.02 691.193 459.035 691.212 459.055C691.214 459.056 691.215 459.059 691.216 459.061C691.218 459.062 691.221 459.065 691.222 459.066C691.264 459.109 691.249 459.092 691.23 459.072L691.232 459.076L691.234 459.078C704.313 472.422 726.948 462.028 725.338 443.333L712.933 299.364L712.863 298.667C711.15 284.359 695.251 276.513 682.889 283.874L682.293 284.241L562.958 360.794C547.51 370.705 552.467 394.495 570.582 397.384L570.587 397.386H570.591C570.598 397.387 570.605 397.388 570.617 397.39C570.639 397.393 570.673 397.398 570.716 397.405C570.804 397.419 570.937 397.44 571.11 397.468C571.457 397.523 571.97 397.606 572.634 397.712C573.96 397.923 575.889 398.23 578.297 398.614C582.413 399.27 587.93 400.15 594.229 401.155C591.019 409.176 586.116 419.854 578.817 432.462C563.713 458.549 538.278 493.056 496.191 529.531C466.88 497.503 448.988 454.811 448.988 407.929C448.988 308.535 529.396 227.96 628.584 227.96Z" fill="black"/>
<path d="M709.433 444.725L709.45 445.055C709.451 445.16 709.446 445.262 709.439 445.364C709.453 445.157 709.451 444.944 709.433 444.725Z" fill="black"/>
<path d="M696.879 299.932C696.904 300.017 696.926 300.104 696.945 300.192C696.918 300.069 696.882 299.95 696.844 299.832C696.855 299.866 696.869 299.898 696.879 299.932Z" fill="black"/>
<path d="M329.259 153.973C336.973 153.973 343.227 160.24 343.227 167.971V294.468C358.38 300.142 369.169 314.779 369.169 331.942C369.169 354.03 351.3 371.935 329.259 371.935C307.217 371.935 289.349 354.03 289.349 331.942C289.349 314.779 300.138 300.142 315.29 294.468V167.971C315.29 160.24 321.544 153.973 329.259 153.973Z" fill="black"/>
<rect x="315.29" y="79.986" width="23.9461" height="47.9916" rx="11.973" fill="black"/>
<rect width="23.96" height="47.9637" rx="11.98" transform="matrix(0.847553 -0.530711 0.529128 0.848542 189.572 122.697)" fill="black"/>
<rect width="23.96" height="47.9637" rx="11.98" transform="matrix(-0.847553 -0.530711 -0.529128 0.848542 464.742 116.698)" fill="black"/>
<rect width="23.96" height="47.9637" rx="11.98" transform="matrix(-0.847553 -0.530711 -0.529128 0.848542 235.47 508.629)" fill="black"/>
<rect width="23.9863" height="47.9113" rx="11.9931" transform="matrix(0.437625 -0.899157 0.89844 0.439096 106.928 216.227)" fill="black"/>
<rect width="23.9803" height="47.9233" rx="11.9901" transform="matrix(-0.558395 -0.829575 0.828499 -0.559991 121.149 469.918)" fill="black"/>
<rect x="317.286" y="525.908" width="23.9461" height="47.9916" rx="11.973" fill="black"/>
<rect x="79.8203" y="341.94" width="23.9958" height="47.8921" rx="11.9979" transform="rotate(-90 79.8203 341.94)" fill="black"/>
<g filter="url(#filter0_ii_65_1165)">
<path d="M317.615 0C424.552 0.000202117 519.144 53.2375 576.701 134.836C559.333 137.424 537.763 148.128 521.68 153.973C472.169 93.179 401.768 55.9904 317.615 55.9902C168.513 55.9902 60.1146 169.749 60.1146 319.944C60.1146 470.14 168.513 582.898 317.615 582.898C353.813 582.898 367.866 581.919 399.411 568.901C403.324 573.313 407.63 578.694 412.152 584.287C372.216 602.491 327.065 616.348 285.895 626.508C275.183 629.151 264.807 631.527 254.943 633.655C109.545 604.343 0 475.033 0 319.944C0 143.244 142.201 0 317.615 0Z" fill="black"/>
</g>
<path d="M680.468 45.9918C684.876 45.9918 688.45 49.5729 688.45 53.9904V117.979C688.45 122.397 684.876 125.978 680.468 125.978H661.51V150.048C705.116 155.583 745.345 171.967 779.422 196.413L791.785 182.191L791.733 182.144C788.409 179.242 788.062 174.19 790.957 170.859L806.683 152.764C809.578 149.433 814.621 149.084 817.945 151.985L854.059 183.505C857.383 186.406 857.731 191.459 854.837 194.79L839.108 212.885C836.228 216.198 831.226 216.559 827.901 213.707L815.638 227.816C860.45 274.537 888 338.008 888 407.929C888 551.498 771.856 667.883 628.585 667.883C576.244 667.883 527.527 652.346 486.767 625.629C502.25 617.795 517.395 608.945 531.882 598.938C536.352 595.851 540.718 592.717 544.984 589.549C570.413 601.323 598.733 607.894 628.585 607.894C738.793 607.894 828.135 518.366 828.135 407.929C828.135 297.491 738.793 207.964 628.585 207.964C518.376 207.964 429.034 297.491 429.034 407.929C429.034 459.914 448.832 507.263 481.282 542.825C479.889 543.942 478.482 545.063 477.057 546.182C463.391 556.915 447.513 566.676 430.277 575.526C392.151 530.273 369.169 471.791 369.169 407.929C369.169 275.882 467.42 166.834 594.661 150.181V125.978H576.701C572.293 125.978 568.719 122.397 568.719 117.979V53.9904C568.719 49.5729 572.293 45.9918 576.701 45.9918H680.468Z" fill="black"/>
<path d="M484.474 560.654C480.914 563.374 477.226 566.027 473.426 568.619C477.227 566.026 480.916 563.373 484.476 560.652L484.474 560.654Z" fill="black"/>
<path d="M690.901 298.584C693.429 296.962 696.771 298.612 697.029 301.608L709.434 445.578C709.757 449.328 705.202 451.408 702.59 448.703C702.59 448.703 670.062 415.723 649.22 394.591C650.074 394.727 648.619 393.969 649.22 394.591C619.49 389.852 573.091 382.455 573.091 382.455C569.468 381.877 568.476 377.119 571.566 375.137L690.901 298.584Z" fill="black"/>
<path d="M615.285 389.182C615.285 389.182 635.706 392.437 649.22 394.591C658.406 403.654 673.094 418.797 673.094 418.797C673.094 418.797 625.591 514.78 522.823 585.768C431.282 648.999 311.299 664.754 250.436 668.753C184.584 673.08 169.618 664.754 169.618 664.754C169.618 664.754 384.106 639.511 486.903 558.773C597.654 471.788 615.285 389.182 615.285 389.182Z" fill="black"/>
<defs>
<filter id="filter0_ii_65_1165" x="0" y="0" width="576.701" height="635.155" filterUnits="userSpaceOnUse" color-interpolation-filters="sRGB">
<feFlood flood-opacity="0" result="BackgroundImageFix"/>
<feBlend mode="normal" in="SourceGraphic" in2="BackgroundImageFix" result="shape"/>
<feColorMatrix in="SourceAlpha" type="matrix" values="0 0 0 0 0 0 0 0 0 0 0 0 0 0 0 0 0 0 127 0" result="hardAlpha"/>
<feOffset dy="1.5"/>
<feGaussianBlur stdDeviation="1"/>
<feComposite in2="hardAlpha" operator="arithmetic" k2="-1" k3="1"/>
<feColorMatrix type="matrix" values="0 0 0 0 0 0 0 0 0 0.45 0 0 0 0 1 0 0 0 0.03 0"/>
<feBlend mode="normal" in2="shape" result="effect1_innerShadow_65_1165"/>
<feColorMatrix in="SourceAlpha" type="matrix" values="0 0 0 0 0 0 0 0 0 0 0 0 0 0 0 0 0 0 127 0" result="hardAlpha"/>
<feOffset dy="1.5"/>
<feGaussianBlur stdDeviation="1"/>
<feComposite in2="hardAlpha" operator="arithmetic" k2="-1" k3="1"/>
<feColorMatrix type="matrix" values="0 0 0 0 0 0 0 0 0 0 0 0 0 0 0 0 0 0 0.1 0"/>
<feBlend mode="normal" in2="effect1_innerShadow_65_1165" result="effect2_innerShadow_65_1165"/>
</filter>
</defs>
</svg>
