<svg width="519" height="622" viewBox="0 0 519 622" fill="none" xmlns="http://www.w3.org/2000/svg">
<path d="M259.415 181.968C358.603 181.968 439.01 262.543 439.01 361.937C439.01 461.331 358.603 541.906 259.415 541.906C235.99 541.906 213.614 537.409 193.095 529.234C230.947 498.367 259.755 465.447 280.075 438.43C292.049 422.509 301.117 408.571 307.4 398.22C311.021 401.89 314.196 405.11 316.657 407.605C318.345 409.316 319.698 410.686 320.628 411.63C321.093 412.1 321.453 412.465 321.696 412.711C321.825 412.842 321.902 412.922 321.971 412.993C322.006 413.028 322.024 413.043 322.043 413.063C322.045 413.065 322.046 413.067 322.047 413.069C322.049 413.07 322.052 413.073 322.053 413.075C322.095 413.117 322.08 413.1 322.061 413.08L322.063 413.084L322.065 413.086C335.144 426.431 357.779 416.036 356.169 397.341L343.764 253.372L343.694 252.675C341.982 238.367 326.082 230.521 313.72 237.882L313.124 238.25L193.789 314.803C178.341 324.713 183.298 348.504 201.413 351.392L201.418 351.394H201.422C201.429 351.395 201.436 351.396 201.448 351.398C201.47 351.401 201.504 351.407 201.547 351.413C201.635 351.428 201.768 351.448 201.941 351.476C202.288 351.531 202.801 351.614 203.465 351.72C204.791 351.932 206.721 352.238 209.128 352.622C213.244 353.278 218.761 354.158 225.061 355.163C221.85 363.184 216.947 373.862 209.648 386.47C194.544 412.558 169.109 447.064 127.022 483.539C97.7107 451.511 79.8193 408.819 79.8193 361.937C79.8193 262.543 160.227 181.968 259.415 181.968Z" fill="black"/>
<path d="M340.264 398.733L340.281 399.063C340.282 399.168 340.277 399.271 340.27 399.372C340.284 399.165 340.282 398.952 340.264 398.733Z" fill="black"/>
<path d="M327.71 253.94C327.735 254.025 327.757 254.112 327.776 254.2C327.749 254.077 327.713 253.958 327.675 253.841C327.686 253.874 327.7 253.906 327.71 253.94Z" fill="black"/>
<path d="M311.299 0C315.707 0 319.281 3.5811 319.281 7.99861V71.9875C319.281 76.405 315.707 79.9861 311.299 79.9861H292.341V104.056C335.947 109.591 376.176 125.975 410.254 150.421L422.616 136.199L422.564 136.152C419.24 133.251 418.893 128.198 421.788 124.867L437.514 106.772C440.41 103.441 445.452 103.092 448.776 105.993L484.89 137.513C488.214 140.414 488.563 145.467 485.668 148.798L469.939 166.893C467.059 170.207 462.057 170.568 458.732 167.715L446.469 181.824C491.282 228.545 518.831 292.016 518.831 361.937C518.831 505.506 402.687 621.892 259.416 621.892C207.075 621.892 158.358 606.354 117.598 579.637C133.081 571.803 148.226 562.954 162.714 552.947C167.183 549.859 171.549 546.725 175.815 543.558C201.244 555.331 229.564 561.902 259.416 561.902C369.624 561.902 458.966 472.375 458.966 361.937C458.966 251.499 369.624 161.972 259.416 161.972C149.207 161.972 59.8651 251.499 59.8651 361.937C59.8651 413.922 79.6629 461.271 112.113 496.833C110.72 497.95 109.313 499.071 107.888 500.19C94.2218 510.924 78.3442 520.684 61.1084 529.535C22.982 484.281 0 425.799 0 361.937C0 229.89 98.2508 120.842 225.492 104.189V79.9861H207.532C203.124 79.9861 199.55 76.405 199.55 71.9875V7.99861C199.55 3.5811 203.124 2.2545e-07 207.532 0H311.299Z" fill="black"/>
<path d="M115.305 514.662C111.745 517.382 108.057 520.035 104.257 522.628C108.058 520.034 111.747 517.381 115.307 514.66L115.305 514.662Z" fill="black"/>
</svg>
