<svg width="540" height="373" viewBox="0 0 540 373" fill="none" xmlns="http://www.w3.org/2000/svg">
<path d="M521.283 0.635931C523.811 -0.985546 527.153 0.663852 527.411 3.66016L539.816 147.63C540.139 151.38 535.584 153.46 532.971 150.755C532.971 150.755 500.444 117.775 479.602 96.6434C480.455 96.7795 479.001 96.0211 479.602 96.6434C449.872 91.9038 403.473 84.5069 403.473 84.5069C399.849 83.9293 398.858 79.1711 401.948 77.189L521.283 0.635931Z" fill="black"/>
<path d="M445.667 91.2335C445.667 91.2335 466.088 94.489 479.602 96.6434C488.788 105.706 503.476 120.849 503.476 120.849C503.476 120.849 455.973 216.832 353.204 287.82C261.664 351.051 141.681 366.806 80.8179 370.805C14.9663 375.132 0 366.806 0 366.806C0 366.806 214.488 341.563 317.285 260.825C428.036 173.84 445.667 91.2335 445.667 91.2335Z" fill="black"/>
</svg>
